<?xml version="1.0" encoding="UTF-8" standalone="no"?>
<svg width="48px" height="48px" viewBox="0 0 48 48" version="1.1" xmlns="http://www.w3.org/2000/svg" xmlns:xlink="http://www.w3.org/1999/xlink">
    <!-- Generator: Sketch 39.1 (31720) - http://www.bohemiancoding.com/sketch -->
    <title>ic_launcher_mdpi</title>
    <desc>Created with Sketch.</desc>
    <defs>
        <path d="M17.9925395,42 L33.9654638,42 C34.5068822,42 35.0005482,41.5079763 35.0005482,40.9641251 L35.0005482,15.2503314 C35.0005482,14.9790789 34.8902468,14.7084995 34.6985645,14.5166708 L20.5772963,0.315963596 C20.3883043,0.118750248 20.1172588,0.0029799548 19.8441956,0.000287622396 L10.9319055,0.000287622396 L2.01961529,0.000287622396 C1.48357743,0.0083646196 1,0.497696034 1,1.03414326 L1,40.9641251 C1,41.5005723 1.48357743,41.991923 2.01961529,42 L17.9925395,42 L17.9925395,42 Z" id="path-1"></path>
        <filter x="-50%" y="-50%" width="200%" height="200%" filterUnits="objectBoundingBox" id="filter-2">
            <feOffset dx="0" dy="-1" in="SourceAlpha" result="shadowOffsetInner1"></feOffset>
            <feComposite in="shadowOffsetInner1" in2="SourceAlpha" operator="arithmetic" k2="-1" k3="1" result="shadowInnerInner1"></feComposite>
            <feColorMatrix values="0 0 0 0 0.749019608   0 0 0 0 0.211764706   0 0 0 0 0.0470588235  0 0 0 0.2 0" type="matrix" in="shadowInnerInner1" result="shadowMatrixInner1"></feColorMatrix>
            <feOffset dx="0" dy="1" in="SourceAlpha" result="shadowOffsetInner2"></feOffset>
            <feComposite in="shadowOffsetInner2" in2="SourceAlpha" operator="arithmetic" k2="-1" k3="1" result="shadowInnerInner2"></feComposite>
            <feColorMatrix values="0 0 0 0 1   0 0 0 0 1   0 0 0 0 1  0 0 0 0.2 0" type="matrix" in="shadowInnerInner2" result="shadowMatrixInner2"></feColorMatrix>
            <feMerge>
                <feMergeNode in="shadowMatrixInner1"></feMergeNode>
                <feMergeNode in="shadowMatrixInner2"></feMergeNode>
            </feMerge>
        </filter>
        <path d="M25.280646,0.000287622396 C24.8764318,-0.00974872216 24.4742352,0.24383625 24.3161814,0.609828282 C24.1588002,0.975151224 24.2509422,1.43280854 24.540147,1.712488 L33.2546294,10.4106533 C33.5350909,10.6903328 33.9924381,10.7846744 34.3630239,10.6354674 C34.7362999,10.4862604 34.998602,10.1075557 35.0012923,9.71546916 L35.0012923,1.00191481 C35.0012923,0.476010355 34.5156971,-0.00171964652 33.9796593,0.000287622396 L25.280646,0.000287622396 L25.280646,0.000287622396 L25.280646,0.000287622396 Z" id="path-3"></path>
        <filter x="-50%" y="-50%" width="200%" height="200%" filterUnits="objectBoundingBox" id="filter-4">
            <feOffset dx="0" dy="-1" in="SourceAlpha" result="shadowOffsetInner1"></feOffset>
            <feComposite in="shadowOffsetInner1" in2="SourceAlpha" operator="arithmetic" k2="-1" k3="1" result="shadowInnerInner1"></feComposite>
            <feColorMatrix values="0 0 0 0 0.749019608   0 0 0 0 0.211764706   0 0 0 0 0.0470588235  0 0 0 0.2 0" type="matrix" in="shadowInnerInner1" result="shadowMatrixInner1"></feColorMatrix>
            <feOffset dx="0" dy="1" in="SourceAlpha" result="shadowOffsetInner2"></feOffset>
            <feComposite in="shadowOffsetInner2" in2="SourceAlpha" operator="arithmetic" k2="-1" k3="1" result="shadowInnerInner2"></feComposite>
            <feColorMatrix values="0 0 0 0 1   0 0 0 0 1   0 0 0 0 1  0 0 0 0.2 0" type="matrix" in="shadowInnerInner2" result="shadowMatrixInner2"></feColorMatrix>
            <feMerge>
                <feMergeNode in="shadowMatrixInner1"></feMergeNode>
                <feMergeNode in="shadowMatrixInner2"></feMergeNode>
            </feMerge>
        </filter>
        <rect id="path-5" x="0" y="0" width="34" height="42"></rect>
        <linearGradient x1="0%" y1="-27.714022%" x2="100%" y2="100%" id="linearGradient-7">
            <stop stop-color="#000000" stop-opacity="0.1" offset="0%"></stop>
            <stop stop-color="#212121" stop-opacity="0.05" offset="100%"></stop>
        </linearGradient>
        <polygon id="path-8" points="2 40 32 40 32 15.6000004 18.5 2 2 2"></polygon>
        <filter x="-50%" y="-50%" width="200%" height="200%" filterUnits="objectBoundingBox" id="filter-9">
            <feOffset dx="0" dy="1" in="SourceAlpha" result="shadowOffsetOuter1"></feOffset>
            <feColorMatrix values="0 0 0 0 0   0 0 0 0 0   0 0 0 0 0  0 0 0 0.2 0" type="matrix" in="shadowOffsetOuter1" result="shadowMatrixOuter1"></feColorMatrix>
            <feOffset dx="2" dy="2" in="SourceAlpha" result="shadowOffsetOuter2"></feOffset>
            <feGaussianBlur stdDeviation="1" in="shadowOffsetOuter2" result="shadowBlurOuter2"></feGaussianBlur>
            <feColorMatrix values="0 0 0 0 0   0 0 0 0 0   0 0 0 0 0  0 0 0 0.2 0" type="matrix" in="shadowBlurOuter2" result="shadowMatrixOuter2"></feColorMatrix>
            <feMerge>
                <feMergeNode in="shadowMatrixOuter1"></feMergeNode>
                <feMergeNode in="shadowMatrixOuter2"></feMergeNode>
            </feMerge>
        </filter>
        <filter x="-50%" y="-50%" width="200%" height="200%" filterUnits="objectBoundingBox" id="filter-10">
            <feOffset dx="0" dy="1" in="SourceAlpha" result="shadowOffsetInner1"></feOffset>
            <feComposite in="shadowOffsetInner1" in2="SourceAlpha" operator="arithmetic" k2="-1" k3="1" result="shadowInnerInner1"></feComposite>
            <feColorMatrix values="0 0 0 0 1   0 0 0 0 1   0 0 0 0 1  0 0 0 0.4 0" type="matrix" in="shadowInnerInner1" result="shadowMatrixInner1"></feColorMatrix>
            <feOffset dx="0" dy="-1" in="SourceAlpha" result="shadowOffsetInner2"></feOffset>
            <feComposite in="shadowOffsetInner2" in2="SourceAlpha" operator="arithmetic" k2="-1" k3="1" result="shadowInnerInner2"></feComposite>
            <feColorMatrix values="0 0 0 0 0.129411765   0 0 0 0 0.129411765   0 0 0 0 0.129411765  0 0 0 0.1 0" type="matrix" in="shadowInnerInner2" result="shadowMatrixInner2"></feColorMatrix>
            <feMerge>
                <feMergeNode in="shadowMatrixInner1"></feMergeNode>
                <feMergeNode in="shadowMatrixInner2"></feMergeNode>
            </feMerge>
        </filter>
        <linearGradient x1="-11.4176841%" y1="0%" x2="108.432055%" y2="100%" id="linearGradient-11">
            <stop stop-color="#FFFFFF" stop-opacity="0.1" offset="0%"></stop>
            <stop stop-color="#FFFFFF" stop-opacity="0.0906515182" offset="9.34848181%"></stop>
            <stop stop-color="#FFFFFF" stop-opacity="0" offset="100%"></stop>
        </linearGradient>
        <linearGradient x1="0%" y1="0%" x2="123.999276%" y2="93.9493169%" id="linearGradient-12">
            <stop stop-color="#212121" stop-opacity="0.1" offset="0%"></stop>
            <stop stop-color="#212121" stop-opacity="0" offset="100%"></stop>
        </linearGradient>
        <rect id="path-13" x="0" y="0" width="34" height="21"></rect>
        <rect id="path-15" x="12" y="4" width="10" height="18" rx="2"></rect>
        <filter x="-50%" y="-50%" width="200%" height="200%" filterUnits="objectBoundingBox" id="filter-16">
            <feOffset dx="1" dy="1" in="SourceAlpha" result="shadowOffsetOuter1"></feOffset>
            <feGaussianBlur stdDeviation="0.5" in="shadowOffsetOuter1" result="shadowBlurOuter1"></feGaussianBlur>
            <feColorMatrix values="0 0 0 0 0   0 0 0 0 0   0 0 0 0 0  0 0 0 0.2 0" type="matrix" in="shadowBlurOuter1" result="shadowMatrixOuter1"></feColorMatrix>
            <feOffset dx="0" dy="1" in="SourceAlpha" result="shadowOffsetOuter2"></feOffset>
            <feColorMatrix values="0 0 0 0 0   0 0 0 0 0   0 0 0 0 0  0 0 0 0.2 0" type="matrix" in="shadowOffsetOuter2" result="shadowMatrixOuter2"></feColorMatrix>
            <feMerge>
                <feMergeNode in="shadowMatrixOuter1"></feMergeNode>
                <feMergeNode in="shadowMatrixOuter2"></feMergeNode>
            </feMerge>
        </filter>
        <rect id="path-17" x="19" y="28" width="10" height="18" rx="2"></rect>
        <filter x="-50%" y="-50%" width="200%" height="200%" filterUnits="objectBoundingBox" id="filter-18">
            <feOffset dx="0" dy="-1" in="SourceAlpha" result="shadowOffsetInner1"></feOffset>
            <feComposite in="shadowOffsetInner1" in2="SourceAlpha" operator="arithmetic" k2="-1" k3="1" result="shadowInnerInner1"></feComposite>
            <feColorMatrix values="0 0 0 0 0   0 0 0 0 0   0 0 0 0 0  0 0 0 0.2 0" type="matrix" in="shadowInnerInner1" result="shadowMatrixInner1"></feColorMatrix>
            <feOffset dx="0" dy="1" in="SourceAlpha" result="shadowOffsetInner2"></feOffset>
            <feComposite in="shadowOffsetInner2" in2="SourceAlpha" operator="arithmetic" k2="-1" k3="1" result="shadowInnerInner2"></feComposite>
            <feColorMatrix values="0 0 0 0 1   0 0 0 0 1   0 0 0 0 1  0 0 0 0.2 0" type="matrix" in="shadowInnerInner2" result="shadowMatrixInner2"></feColorMatrix>
            <feMerge>
                <feMergeNode in="shadowMatrixInner1"></feMergeNode>
                <feMergeNode in="shadowMatrixInner2"></feMergeNode>
            </feMerge>
        </filter>
        <linearGradient x1="-34.9346545%" y1="0%" x2="127.518456%" y2="100%" id="linearGradient-19">
            <stop stop-color="#FFFFFF" stop-opacity="0.1" offset="0%"></stop>
            <stop stop-color="#FFFFFF" stop-opacity="0" offset="100%"></stop>
        </linearGradient>
    </defs>
    <g id="Icons" stroke="none" stroke-width="1" fill="none" fill-rule="evenodd">
        <g id="ic_launcher_mdpi">
            <g id="orange_mdpi" transform="translate(6.000000, 3.000000)">
                <g id="Doc">
                    <use fill="#D36118" fill-rule="evenodd" xlink:href="#path-1"></use>
                    <use fill="black" fill-opacity="1" filter="url(#filter-2)" xlink:href="#path-1"></use>
                </g>
                <g id="Corner">
                    <use fill="#D36118" fill-rule="evenodd" xlink:href="#path-3"></use>
                    <use fill="black" fill-opacity="1" filter="url(#filter-4)" xlink:href="#path-3"></use>
                </g>
            </g>
            <g id="paper_mdpi" transform="translate(7.000000, 3.000000)">
                <mask id="mask-6" fill="white">
                    <use xlink:href="#path-5"></use>
                </mask>
                <g id="Mask"></g>
                <path d="M24.9790017,42 L4,42 L2,40 L32,40 L32,15.6000004 L34,17.6000004 L34,40.9955454 C33.9814795,41.5267806 33.4964354,42 32.9654638,42 L24.9790017,42 Z" id="Long-Shadow" fill="url(#linearGradient-7)" fill-rule="evenodd" mask="url(#mask-6)"></path>
                <g id="Paper" mask="url(#mask-6)">
                    <use fill="black" fill-opacity="1" filter="url(#filter-9)" xlink:href="#path-8"></use>
                    <use fill="#F5F5F5" fill-rule="evenodd" xlink:href="#path-8"></use>
                    <use fill="black" fill-opacity="1" filter="url(#filter-10)" xlink:href="#path-8"></use>
                </g>
            </g>
            <g id="finish_mdpi" transform="translate(6.000000, 3.000000)" fill="url(#linearGradient-11)">
                <path d="M33.9654638,42 C34.5068822,42 35.0005482,41.5079763 35.0005482,40.9641251 L35.0005482,15.2503314 C35.0005482,14.9790789 34.8902468,14.7084995 34.6985645,14.5166708 L20.5772963,0.315963596 C20.3883043,0.118750248 20.1172588,0.0029799548 19.8441956,0.000287622396 L10.9319055,0.000287622396 L2.01961529,0.000287622396 C1.48357743,0.0083646196 1,0.497696034 1,1.03414326 L1,40.9641251 C1,41.5005723 1.48357743,41.991923 2.01961529,42 L17.9925395,42 L33.9654638,42 Z M25.280646,0.000287622396 C24.8764318,-0.00974872216 24.4742352,0.24383625 24.3161814,0.609828282 C24.1588002,0.975151224 24.2509422,1.43280854 24.540147,1.712488 L33.2546294,10.4106533 C33.5350909,10.6903328 33.9924381,10.7846744 34.3630239,10.6354674 C34.7362999,10.4862604 34.998602,10.1075557 35.0012923,9.71546916 L35.0012923,1.00191481 C35.0012923,0.476010355 34.5156971,-0.00171964652 33.9796593,0.000287622396 L25.280646,0.000287622396 Z" id="Combined-Shape"></path>
            </g>
            <path d="M41.0005482,41.0005482 L28,28 L28,44.9997124 L39.9654638,44.9997124 C40.5068822,44.9997124 41.0005482,44.5076886 41.0005482,43.9638375 L41.0005482,41.0005482 Z" id="Combined-Shape" fill="url(#linearGradient-12)"></path>
            <g id="Phone-Shadow" transform="translate(7.000000, 24.000000)">
                <mask id="mask-14" fill="white">
                    <use xlink:href="#path-13"></use>
                </mask>
                <g id="Rectangle-2"></g>
                <g id="Finish-Copy" mask="url(#mask-14)" fill-opacity="1" fill="black">
                    <use filter="url(#filter-16)" xlink:href="#path-15"></use>
                </g>
            </g>
            <g id="Rectangle">
                <use fill="#212121" fill-rule="evenodd" xlink:href="#path-17"></use>
                <use fill="black" fill-opacity="1" filter="url(#filter-18)" xlink:href="#path-17"></use>
            </g>
            <rect id="Finish" fill="url(#linearGradient-19)" x="19" y="28" width="10" height="18" rx="2"></rect>
            <path d="M29,26.0381723 C28.2008869,24.0474162 26.26333,22.6428614 24,22.6428614 C21.73667,22.6428614 19.7991131,24.0474162 19,26.0381723 C20.2937,24.7765012 22.0567995,24.0000049 24,24.0000049 C25.9432005,24.0000049 27.7063,24.7765012 29,26.0381723 Z M31.5,24.1167782 C30.3013303,21.1306441 27.3949951,19.0238119 24,19.0238119 C20.6050049,19.0238119 17.6986697,21.1306441 16.5,24.1167782 C18.44055,22.2242717 21.0851993,21.0595272 24,21.0595272 C26.9148007,21.0595272 29.55945,22.2242717 31.5,24.1167782 Z M34,21.2906218 C32.4017737,17.3091096 28.5266601,14.5 24,14.5 C19.4733399,14.5 15.5982263,17.3091096 14,21.2906218 C16.5874,18.7672797 20.113599,17.2142871 24,17.2142871 C27.886401,17.2142871 31.4126,18.7672797 34,21.2906218 Z" id="Bars-Copy" fill="#18A6F8"></path>
        </g>
    </g>
</svg>