<?xml version="1.0" encoding="UTF-8" standalone="no"?>
<!-- Created with Inkscape (http://www.inkscape.org/) -->

<svg
   xmlns:dc="http://purl.org/dc/elements/1.1/"
   xmlns:cc="http://creativecommons.org/ns#"
   xmlns:rdf="http://www.w3.org/1999/02/22-rdf-syntax-ns#"
   xmlns:svg="http://www.w3.org/2000/svg"
   xmlns="http://www.w3.org/2000/svg"
   xmlns:sodipodi="http://sodipodi.sourceforge.net/DTD/sodipodi-0.dtd"
   xmlns:inkscape="http://www.inkscape.org/namespaces/inkscape"
   version="1.1"
   id="svg2"
   xml:space="preserve"
   width="192"
   height="192"
   viewBox="0 0 192 192"
   sodipodi:docname="icon final.ai"
   inkscape:version="0.92.1 r15371"><metadata
     id="metadata8"><rdf:RDF><cc:Work
         rdf:about=""><dc:format>image/svg+xml</dc:format><dc:type
           rdf:resource="http://purl.org/dc/dcmitype/StillImage" /><dc:title></dc:title></cc:Work></rdf:RDF></metadata><defs
     id="defs6"><clipPath
       clipPathUnits="userSpaceOnUse"
       id="clipPath20"><path
         d="M 0,144 H 144 V 0 H 0 Z"
         id="path18"
         inkscape:connector-curvature="0" /></clipPath></defs><sodipodi:namedview
     pagecolor="#ffffff"
     bordercolor="#666666"
     borderopacity="1"
     objecttolerance="10"
     gridtolerance="10"
     guidetolerance="10"
     inkscape:pageopacity="0"
     inkscape:pageshadow="2"
     inkscape:window-width="1920"
     inkscape:window-height="1016"
     id="namedview4"
     showgrid="false"
     inkscape:zoom="1.2291667"
     inkscape:cx="97.627119"
     inkscape:cy="96"
     inkscape:window-x="0"
     inkscape:window-y="27"
     inkscape:window-maximized="1"
     inkscape:current-layer="g10" /><g
     id="g10"
     inkscape:groupmode="layer"
     inkscape:label="icon final"
     transform="matrix(1.3333333,0,0,-1.3333333,0,192)"><path
       d="M 0,0 H 144 V 144 H 0 Z"
       style="fill:#f8971c;fill-opacity:1;fill-rule:nonzero;stroke:none;stroke-width:1.00079954"
       id="path12"
       inkscape:connector-curvature="0" /><g
       id="g14"><g
         id="g16"
         clip-path="url(#clipPath20)"><g
           id="g22"
           transform="translate(25.5146,134.0903)"><path
             d="m 0,0 h 55.035 l 42.828,-42.832 v -75.754 c 0,0 0.46,-2.764 -2.301,-2.764 H 0 c 0,0 -2.763,-0.287 -2.763,1.842 V -2.072 c 0,0 0.46,2.072 2.763,2.072"
             style="fill:#ffffff;fill-opacity:1;fill-rule:nonzero;stroke:none"
             id="path24"
             inkscape:connector-curvature="0" /></g><g
           id="g26"
           transform="translate(28.5083,128.5635)"><path
             d="M 0,0 H 49.585 L 88.73,-39.759 v -70.539 H 0 Z"
             style="fill:#f8971c;fill-opacity:1;fill-rule:nonzero;stroke:none"
             id="path28"
             inkscape:connector-curvature="0" /></g><g
           id="g30"
           transform="translate(94.3662,134.0903)"><path
             d="m 0,0 h 26.865 c 0,0 2.204,-0.613 2.176,-2.302 -0.029,-1.689 0,-26.557 0,-26.557 0,0 -0.642,-2.918 -4.48,-1.689 l -26.403,26.25 c 0,0 -1.538,2.916 1.842,4.298"
             style="fill:#ffffff;fill-opacity:1;fill-rule:nonzero;stroke:none"
             id="path32"
             inkscape:connector-curvature="0" /></g><path
           d="M 101.865,71.559 H 49.601 v 7.502 h 52.264 z"
           style="fill:#ffffff;fill-opacity:1;fill-rule:nonzero;stroke:none"
           id="path34"
           inkscape:connector-curvature="0" /><path
           d="M 85.716,62.91 H 82.41 v 2.926 h 3.306 z"
           style="fill:#ffffff;fill-opacity:1;fill-rule:nonzero;stroke:none"
           id="path36"
           inkscape:connector-curvature="0" /><path
           d="M 99.449,62.91 H 88.007 v 2.926 h 11.442 z"
           style="fill:#ffffff;fill-opacity:1;fill-rule:nonzero;stroke:none"
           id="path38"
           inkscape:connector-curvature="0" /><path
           d="M 85.716,56.172 H 82.41 v 2.924 h 3.306 z"
           style="fill:#ffffff;fill-opacity:1;fill-rule:nonzero;stroke:none"
           id="path40"
           inkscape:connector-curvature="0" /><path
           d="M 99.449,56.172 H 88.007 v 2.924 h 11.442 z"
           style="fill:#ffffff;fill-opacity:1;fill-rule:nonzero;stroke:none"
           id="path42"
           inkscape:connector-curvature="0" /><path
           d="M 85.716,49.559 H 82.41 v 2.926 h 3.306 z"
           style="fill:#ffffff;fill-opacity:1;fill-rule:nonzero;stroke:none"
           id="path44"
           inkscape:connector-curvature="0" /><path
           d="M 99.449,49.559 H 88.007 v 2.926 h 11.442 z"
           style="fill:#ffffff;fill-opacity:1;fill-rule:nonzero;stroke:none"
           id="path46"
           inkscape:connector-curvature="0" /><g
           id="g48"
           transform="translate(107.8311,36.0215)"><path
             d="m 0,0 c 0,-0.949 -0.773,-1.723 -1.725,-1.723 h -60.514 c -0.952,0 -1.724,0.774 -1.724,1.723 v 45.385 c 0,0.952 0.772,1.724 1.724,1.724 H -1.725 C -0.773,47.109 0,46.337 0,45.385 Z"
             style="fill:none;stroke:#ffffff;stroke-width:2.58699989;stroke-linecap:butt;stroke-linejoin:miter;stroke-miterlimit:10;stroke-dasharray:none;stroke-opacity:1"
             id="path50"
             inkscape:connector-curvature="0" /></g><g
           id="g52"
           transform="translate(-6.6162,5.8643)"><path
             d="m 0,0 30.123,80.718 c 0,0 4.328,7.448 11.507,4.768 3.686,-1.375 37.837,-14.119 37.837,-14.119 0,0 6.067,-4.475 5.108,-10.085 -0.734,-4.288 -30.848,-82.659 -30.848,-82.659 0,0 -4.405,-5.209 -9.45,-3.326 -2.523,0.941 -38.806,14.482 -38.806,14.482 0,0 -6.597,2.463 -5.471,10.221"
             style="fill:#ffffff;fill-opacity:1;fill-rule:nonzero;stroke:none"
             id="path54"
             inkscape:connector-curvature="0" /></g><g
           id="g56"
           transform="translate(46.4883,-3.4795)"><path
             d="M 0,0 -45.21,16.873 -21.314,80.904 23.897,64.033 Z"
             style="fill:#f8971c;fill-opacity:1;fill-rule:nonzero;stroke:none"
             id="path58"
             inkscape:connector-curvature="0" /></g><g
           id="g60"
           transform="translate(26.1382,-5.6963)"><path
             d="m 0,0 c -1.09,-2.922 -4.34,-4.404 -7.261,-3.313 -2.92,1.088 -4.404,4.336 -3.314,7.26 1.09,2.92 4.34,4.403 7.261,3.315 C -0.394,6.17 1.089,2.92 0,0"
             style="fill:#f8971c;fill-opacity:1;fill-rule:nonzero;stroke:none"
             id="path62"
             inkscape:connector-curvature="0" /></g><g
           id="g64"
           transform="translate(43.5781,78.1289)"><path
             d="m 0,0 c -0.192,-0.514 -0.765,-0.776 -1.279,-0.583 -0.515,0.191 -0.776,0.764 -0.584,1.279 0.192,0.514 0.765,0.776 1.28,0.584 C -0.069,1.088 0.192,0.515 0,0"
             style="fill:#f8971c;fill-opacity:1;fill-rule:nonzero;stroke:none"
             id="path66"
             inkscape:connector-curvature="0" /></g><g
           id="g68"
           transform="translate(45.9355,78.311)"><path
             d="m 0,0 9.318,-3.478 c 0,0 0.968,-1.422 -0.695,-1.863 l -9.319,3.478 c 0,0 -1.193,1.153 0.696,1.863"
             style="fill:#f8971c;fill-opacity:1;fill-rule:nonzero;stroke:none"
             id="path70"
             inkscape:connector-curvature="0" /></g><g
           id="g72"
           transform="translate(23.8608,29.6455)"><path
             d="m 0,0 c 0,0 3.857,1.893 8.62,-0.187 5.961,-2.602 6.328,-6.688 6.328,-6.688"
             style="fill:none;stroke:#ffffff;stroke-width:3.03699994;stroke-linecap:butt;stroke-linejoin:miter;stroke-miterlimit:10;stroke-dasharray:none;stroke-opacity:1"
             id="path74"
             inkscape:connector-curvature="0" /></g><g
           id="g76"
           transform="translate(21.0669,36.8643)"><path
             d="m 0,0 c 0,0 7.8,2.699 15.038,-0.631 7.845,-3.607 9.152,-11.031 9.152,-11.031"
             style="fill:none;stroke:#ffffff;stroke-width:3.03699994;stroke-linecap:butt;stroke-linejoin:miter;stroke-miterlimit:10;stroke-dasharray:none;stroke-opacity:1"
             id="path78"
             inkscape:connector-curvature="0" /></g><g
           id="g80"
           transform="translate(19.5352,43.9854)"><path
             d="m 0,0 c 0,0 9.275,3.93 20.709,-1.047 10.128,-4.41 12.638,-15.379 12.638,-15.379"
             style="fill:none;stroke:#ffffff;stroke-width:3.03699994;stroke-linecap:butt;stroke-linejoin:miter;stroke-miterlimit:10;stroke-dasharray:none;stroke-opacity:1"
             id="path82"
             inkscape:connector-curvature="0" /></g><g
           id="g84"
           transform="translate(34.7681,20.8818)"><path
             d="M 0,0 22.591,8.461"
             style="fill:none;stroke:#f8971c;stroke-width:1.01199996;stroke-linecap:butt;stroke-linejoin:miter;stroke-miterlimit:10;stroke-dasharray:none;stroke-opacity:1"
             id="path86"
             inkscape:connector-curvature="0" /></g><g
           id="g88"
           transform="translate(24.6064,25.7197)"><path
             d="M 0,0 -6.423,21.998"
             style="fill:none;stroke:#f8971c;stroke-width:1.01199996;stroke-linecap:butt;stroke-linejoin:miter;stroke-miterlimit:10;stroke-dasharray:none;stroke-opacity:1"
             id="path90"
             inkscape:connector-curvature="0" /></g></g></g></g></svg>